<?xml version="1.0" standalone="no"?><!DOCTYPE svg PUBLIC "-//W3C//DTD SVG 1.1//EN" "http://www.w3.org/Graphics/SVG/1.1/DTD/svg11.dtd"><svg t="1536324513427" class="icon" style="" viewBox="0 0 1024 1024" version="1.1" xmlns="http://www.w3.org/2000/svg" p-id="3918" xmlns:xlink="http://www.w3.org/1999/xlink" width="200" height="200"><defs><style type="text/css"></style></defs><path d="M538 902l-52 0c-12.667 0-21 2.333-25 7-12.667 12.667-30 22.167-52 28.5s-47.333 9.5-76 9.5c-36.667 0-71-6.333-103-19-4-2-7.833-4.167-11.5-6.5s-6.833-4.5-9.5-6.5-5.167-4.333-7.5-7-4.167-5.167-5.5-7.5-2.333-5-3-8-1-6.167-1-9.5c0-9.333 3.5-17.5 10.5-24.5S221 844.667 237 838c9.333-2.667 15.833-6 19.5-10s5.5-9 5.5-15c0-17.333-2-28-6-32-3.333-4-6.667-9-10-15l-12-16c-3.333-6-6.667-10.667-10-14-6.667-12.667-17.333-19-32-19-4 0-7.5 0.5-10.5 1.5s-6.833 2.833-11.5 5.5-8 4.667-10 6c-12.667 12-21.333 18.333-26 19-7.333 0-11.333-15.333-12-46l0-5c0-21.333 4-57.667 12-109 13.333-38.667 34.667-73 64-103 8.667-8 13-18.667 13-32l0-12c0-19.333 6.333-38.667 19-58 3.333-2.667 5.333-5.5 6-8.5s1-6.5 1-10.5l0-7c0-15.333 1-30.167 3-44.5s5.167-28.167 9.5-41.5 9.833-26.333 16.5-39 14.5-25.167 23.5-37.5 19.167-24.167 30.5-35.5c49.333-55.333 113.333-83 192-83 12.667 0 25 0.667 37 2s23.833 3.5 35.5 6.5 23 6.833 34 11.5 21.667 10 32 16 20.5 13 30.5 21 19.667 16.667 29 26c18 20 33 40 45 60s21.5 41.833 28.5 65.5S794 333.333 794 358l0 7c0 8.667 2 15 6 19 12.667 19.333 19 38.667 19 58l0 12c0 17.333 4.333 28 13 32 30 30 51.333 64.333 64 103 14 43.333 18.333 79.667 13 109 0 15.333-1.5 26.833-4.5 34.5s-7.833 13.167-14.5 16.5c-4.667 0-13.333-6.333-26-19-8.667-8.667-19.333-13-32-13l-12 0c-1.333 0-2.667 0.333-4 1s-2.833 1.167-4.5 1.5-3.167 1.167-4.5 2.5l-4 2-3.5 3.5c0 0-1 1.333-3 4s-2.833 4.167-2.5 4.5c-4.667 12.667-15.333 27.667-32 45-10 10-12.333 20.667-7 32 0 6 5.333 13.333 16 22l3 3c29.333 13.333 44.333 28.333 45 45 0 9.333-3 17.5-9 24.5s-15.667 13.833-29 20.5c-12.667 6-28 10.667-46 14s-37 5-57 5c-53.333 0-96-12.667-128-38 4.667 0 3.667-1.333-3-4L538 902zM685 1024c64 0 115-12.667 153-38 20.667-14 36.5-29.333 47.5-46s16.5-35.667 16.5-57c0-23.333-6.333-44.667-19-64l9 0c2 0 4.833-0.5 8.5-1.5s6.5-2.5 8.5-4.5c36-12 57.333-44 64-96 6-44.667-0.333-96-19-154-2.667-8.667-5.833-17.333-9.5-26s-7.667-17-12-25-9.167-16-14.5-24-10.833-15.667-16.5-23-11.833-15-18.5-23c0-28-6.333-58-19-90 0-32-3.667-62.5-11-91.5s-18.5-56.833-33.5-83.5-34.167-51.667-57.5-75c-10-10-20.333-19.167-31-27.5s-21.5-16-32.5-23-22.333-13.333-34-19S640.833 22 628.5 18 603.667 10.667 591 8s-25.5-4.667-38.5-6S526 0 512 0c-32 0-62.5 3.667-91.5 11S363.667 29.5 337 44.5s-51.667 34.167-75 57.5c-68 76-102 159.333-102 250-12.667 25.333-19 55.333-19 90l0 6c-9.333 7.333-17.833 15.833-25.5 25.5s-14.333 19.667-20 30-10.333 20.167-14 29.5S74 552.333 70 563c-18.667 58-25 109.333-19 154 3.333 24.667 10.667 45.167 22 61.5s25.333 27.833 42 34.5c2 0 6.333 1 13 3s11 3 13 3c-12.667 19.333-19 40.667-19 64 0 44 21.333 78.333 64 103 9.333 6 19.5 11.5 30.5 16.5s22.833 9 35.5 12 25.667 5.333 39 7c13.333 1.667 27.333 2.5 42 2.5 70.667 0 124-15 160-45l32 0C567 1009 620.333 1024 685 1024z" p-id="3919" fill="#1296db"></path></svg>