<?xml version="1.0" standalone="no"?><!DOCTYPE svg PUBLIC "-//W3C//DTD SVG 1.1//EN" "http://www.w3.org/Graphics/SVG/1.1/DTD/svg11.dtd"><svg t="1536325051867" class="icon" style="" viewBox="0 0 1024 1024" version="1.1" xmlns="http://www.w3.org/2000/svg" p-id="6872" xmlns:xlink="http://www.w3.org/1999/xlink" width="200" height="200"><defs><style type="text/css"></style></defs><path d="M816.551274 248.167103C697.80273 131.500986 553.294498 97.66946 394.437467 140.52757 114.716718 215.994356 28.163433 506.98887 169.479973 696.646394c6.853082 9.198499 8.147564 26.164916 5.545296 38.09769-7.601118 34.868135-18.714224 68.958558-28.000728 103.474676-4.965082 18.455327-7.90504 37.21253 8.632611 52.019771 17.777899 15.921621 36.82572 12.654204 56.258305 2.777253 31.879058-16.200984 64.335261-31.314193 95.763041-48.336892 20.469194-11.086499 38.847773-11.658528 61.942771-5.240351 46.063105 12.799514 93.717452 19.872606 117.992321 24.74866 144.317896-2.603291 249.610988-41.736567 333.958024-129.489166C955.8826 594.966597 954.903296 384.090818 816.551274 248.167103zM763.498988 681.878039C658.864906 785.728268 531.49603 810.562886 393.782551 764.371868c-45.408189-15.229866-82.686211-19.207457-122.088616 7.493671-3.576455 2.423189-8.448416 2.934842-26.51284 8.852622 36.271088-62.917982 9.41851-102.273315-21.181415-146.894581-67.886133-98.989525-54.03773-226.624461 26.78197-318.740438 132.026966-150.480246 390.603139-150.382009 522.634198 0.196475C869.144096 424.455131 867.098507 579.054185 763.498988 681.878039zM640.32976 377.432165c-26.245757-0.961908-47.457872 18.594497-48.955992 45.13906-1.532913 27.1565 16.636912 48.230468 43.304272 50.227961 26.571169 1.989307 48.850591-16.263405 51.568493-42.247196C689.112814 403.14478 667.75846 378.439098 640.32976 377.432165zM385.221572 377.38714c-27.757181 0.205685-48.88743 23.684422-46.821375 52.023864 1.940189 26.610054 23.154349 44.910862 50.212612 43.317575 26.505677-1.560542 46.149063-22.886243 45.152363-49.02046C432.798147 398.345474 410.636405 377.198851 385.221572 377.38714z" p-id="6873" fill="#515151"></path></svg>