<svg id="Layer_1" enable-background="new 0 0 512 512" height="512" viewBox="0 0 512 512" width="512" xmlns="http://www.w3.org/2000/svg"><g><path d="m10 38h492v80h-492z" fill="#cecdf3"/><path d="m10 118h492v300h-492z" fill="#fff"/><g><path d="m446 178h-230c-5.523 0-10-4.477-10-10s4.477-10 10-10h230c5.522 0 10 4.477 10 10s-4.478 10-10 10z" fill="#e6e6f9"/></g><g><path d="m326 218h-110c-5.523 0-10-4.477-10-10s4.477-10 10-10h110c5.522 0 10 4.477 10 10s-4.478 10-10 10z" fill="#e6e6f9"/></g><g><path d="m306 258h-90c-5.523 0-10-4.477-10-10s4.477-10 10-10h90c5.522 0 10 4.477 10 10s-4.478 10-10 10z" fill="#e6e6f9"/></g><g><path d="m306 298h-120c-5.523 0-10-4.478-10-10s4.477-10 10-10h120c5.522 0 10 4.478 10 10s-4.478 10-10 10z" fill="#e6e6f9"/></g><g><path d="m306 338h-240c-5.523 0-10-4.478-10-10s4.477-10 10-10h240c5.522 0 10 4.478 10 10s-4.478 10-10 10z" fill="#e6e6f9"/></g><g><path d="m326 378h-260c-5.523 0-10-4.478-10-10s4.477-10 10-10h260c5.522 0 10 4.478 10 10s-4.478 10-10 10z" fill="#e6e6f9"/></g><g><circle cx="60" cy="78" fill="#ff7d97" r="10"/><circle cx="100" cy="78" fill="#ffee80" r="10"/><circle cx="140" cy="78" fill="#7dd9c2" r="10"/></g><g><path d="m446 88h-180c-5.522 0-10-4.478-10-10s4.478-10 10-10h180c5.522 0 10 4.478 10 10s-4.478 10-10 10z" fill="#fff"/></g><g><circle cx="116" cy="228" fill="#cecdf3" r="60"/><g fill="#fff"><circle cx="116" cy="228" r="20"/><path d="m116 248c17.411 0 32.216 11.127 37.711 26.656-10.305 8.34-23.421 13.344-37.711 13.344s-27.406-5.004-37.711-13.344c5.495-15.529 20.3-26.656 37.711-26.656z"/></g></g><g><path d="m422 474c-11.046 0-20-8.954-20-20v-80h40v80c0 11.046-8.954 20-20 20z" fill="#66e0f7"/><circle cx="422" cy="294" fill="#ccf5fc" r="80"/><g fill="#8481e2"><path d="m502 28h-492c-5.523 0-10 4.478-10 10v380c0 5.522 4.477 10 10 10h382v26c0 16.542 13.458 30 30 30s30-13.458 30-30v-26h50c5.522 0 10-4.478 10-10v-380c0-5.522-4.478-10-10-10zm-10 20v60h-472v-60zm-70 316c-38.598 0-70-31.402-70-70s31.402-70 70-70 70 31.402 70 70-31.402 70-70 70zm10 90c0 5.514-4.486 10-10 10s-10-4.486-10-10v-70.559c3.284.365 6.62.559 10 .559s6.716-.194 10-.559zm60-46h-40v-29.148c15.83-5.613 29.635-15.536 40-28.353zm-70-204c-49.626 0-90 40.374-90 90 0 39.111 25.08 72.469 60 84.852v29.148h-372v-280h472v109.501c-16.513-20.418-41.755-33.501-70-33.501z"/><path d="m116 158c-38.598 0-70 31.402-70 70s31.402 70 70 70 70-31.402 70-70-31.402-70-70-70zm-24.921 113.319c5.508-8.22 14.799-13.319 24.921-13.319 10.123 0 19.414 5.099 24.921 13.319-7.342 4.241-15.849 6.681-24.921 6.681-9.071 0-17.578-2.44-24.921-6.681zm14.921-43.319c0-5.514 4.486-10 10-10s10 4.486 10 10-4.486 10-10 10-10-4.486-10-10zm49.988 29.981c-4.092-5.449-9.229-9.964-15.056-13.316 3.198-4.77 5.068-10.503 5.068-16.665 0-16.542-13.458-30-30-30s-30 13.458-30 30c0 6.163 1.87 11.895 5.069 16.665-5.827 3.352-10.964 7.868-15.056 13.316-6.284-8.358-10.013-18.742-10.013-29.981 0-27.57 22.43-50 50-50s50 22.43 50 50c0 11.239-3.729 21.622-10.012 29.981z"/></g><circle cx="422" cy="295" fill="#fff" r="37.5"/></g></g></svg>