<svg id="bold" enable-background="new 0 0 32 32" height="512" viewBox="0 0 32 32" width="512" xmlns="http://www.w3.org/2000/svg"><path d="m26 32h-20c-3.314 0-6-2.686-6-6v-20c0-3.314 2.686-6 6-6h20c3.314 0 6 2.686 6 6v20c0 3.314-2.686 6-6 6z" fill="#e3f8fa"/><g fill="#8ce1eb"><path d="m12.833 15.793v-2.409c-1.232.235-2.167 1.317-2.167 2.616 0 .555.171 1.07.462 1.497z"/><path d="m13.833 13.384v2.616c0 .132-.053.26-.146.354l-1.851 1.851c.427.291.943.462 1.497.462 1.471 0 2.667-1.197 2.667-2.667 0-1.299-.935-2.381-2.167-2.616z"/><path d="m20.667 15.333h-2.667c-.368 0-.667-.299-.667-.667s.299-.666.667-.666h2.667c.368 0 .667.299.667.667s-.299.666-.667.666z"/><path d="m20.667 18h-2.667c-.368 0-.667-.299-.667-.667s.299-.667.667-.667h2.667c.368 0 .667.299.667.667s-.299.667-.667.667z"/></g><path d="m22.834 11.333h-13.668c-.643 0-1.166.524-1.166 1.167v9c0 .643.523 1.167 1.167 1.167h5.106c-.078.334-.286.876-.841 1.431-.095.095-.124.239-.072.363.051.125.173.206.308.206h4.667c.135 0 .257-.081.308-.206s.023-.268-.072-.363c-.554-.554-.767-1.096-.85-1.431h5.114c.643 0 1.167-.523 1.167-1.167v-9c-.002-.643-.525-1.167-1.168-1.167zm-.167 8.667h-13.334v-7.333h13.334z" fill="#26c6da"/></svg>