<svg id="bold" enable-background="new 0 0 32 32" height="512" viewBox="0 0 32 32" width="512" xmlns="http://www.w3.org/2000/svg"><path d="m26 32h-20c-3.314 0-6-2.686-6-6v-20c0-3.314 2.686-6 6-6h20c3.314 0 6 2.686 6 6v20c0 3.314-2.686 6-6 6z" fill="#f5e6fe"/><path d="m22 24h-12c-1.103 0-2-.897-2-2v-12c0-1.103.897-2 2-2h12c1.103 0 2 .897 2 2v12c0 1.103-.897 2-2 2zm-12-14.667c-.368 0-.667.299-.667.667v12c0 .368.299.667.667.667h12c.368 0 .667-.299.667-.667v-12c0-.368-.299-.667-.667-.667z" fill="#be63f9"/><g fill="#d9a4fc"><path d="m13.833 14.833h-1c-.552 0-1-.448-1-1v-1c0-.552.448-1 1-1h1c.552 0 1 .448 1 1v1c0 .553-.447 1-1 1z"/><path d="m19.167 14.833h-1c-.552 0-1-.448-1-1v-1c0-.552.448-1 1-1h1c.552 0 1 .448 1 1v1c0 .553-.448 1-1 1z"/><path d="m13.833 20.167h-1c-.552 0-1-.448-1-1v-1c0-.552.448-1 1-1h1c.552 0 1 .448 1 1v1c0 .552-.447 1-1 1z"/><path d="m19.167 20.167h-1c-.552 0-1-.448-1-1v-1c0-.552.448-1 1-1h1c.552 0 1 .448 1 1v1c0 .552-.448 1-1 1z"/></g></svg>