<svg id="bold" enable-background="new 0 0 32 32" height="512" viewBox="0 0 32 32" width="512" xmlns="http://www.w3.org/2000/svg"><path d="m26 32h-20c-3.314 0-6-2.686-6-6v-20c0-3.314 2.686-6 6-6h20c3.314 0 6 2.686 6 6v20c0 3.314-2.686 6-6 6z" fill="#ffe6e2"/><path d="m16.667 13.333c-1.838 0-3.333 1.495-3.333 3.333 0 .678.206 1.308.555 1.835l-1.693 1.693c-.26.26-.26.682 0 .943.13.13.301.195.471.195s.341-.065.471-.195l1.693-1.693c.527.35 1.157.556 1.836.556 1.838 0 3.333-1.495 3.333-3.333s-1.495-3.334-3.333-3.334zm-2 3.334c0-1.103.897-2 2-2s2 .897 2 2c0 .368-.299.667-.667.667s-.667-.299-.667-.667-.299-.667-.667-.667c-.367 0-.666.299-.666.667 0 .868.559 1.601 1.333 1.877-.21.075-.432.123-.667.123-1.102 0-1.999-.897-1.999-2z" fill="#fd907e"/><path d="m22 8.667h-12c-1.103 0-2 .897-2 2v10.667c0 1.103.897 2 2 2h12c1.103 0 2-.897 2-2v-10.667c0-1.103-.897-2-2-2zm0 13.333h-12c-.368 0-.667-.299-.667-.667v-9.333h13.334v9.333c0 .368-.299.667-.667.667z" fill="#fc573b"/></svg>