<svg id="Layer_1" enable-background="new 0 0 512 512" height="512" viewBox="0 0 512 512" width="512" xmlns="http://www.w3.org/2000/svg"><g><path d="m10 66h492v80h-492z" fill="#cecdf3"/><path d="m10 146h492v300h-492z" fill="#fff"/><g><g><path d="m92 366h-36c-5.522 0-10-4.477-10-10s4.478-10 10-10h36c5.522 0 10 4.477 10 10s-4.478 10-10 10z" fill="#cecdf3"/></g><g><path d="m126 406h-70c-5.522 0-10-4.477-10-10s4.478-10 10-10h70c5.523 0 10 4.477 10 10s-4.477 10-10 10z" fill="#cecdf3"/></g></g><g><g><path d="m456 246h-36c-5.522 0-10-4.477-10-10s4.478-10 10-10h36c5.522 0 10 4.477 10 10s-4.478 10-10 10z" fill="#cecdf3"/></g><g><path d="m456 206h-70c-5.522 0-10-4.477-10-10s4.478-10 10-10h70c5.522 0 10 4.477 10 10s-4.478 10-10 10z" fill="#cecdf3"/></g></g><circle cx="256" cy="296" fill="#ff7d97" r="110"/><path d="m256 356c-16.569 0-31.569-6.716-42.426-17.574l-35.355 35.355c19.905 19.907 47.405 32.219 77.781 32.219 60.751 0 110-49.249 110-110h-50c0 33.137-26.863 60-60 60z" fill="#7dd9c2"/><path d="m256 186v50c33.137 0 60 26.863 60 60h50c0-60.751-49.249-110-110-110z" fill="#ffee80"/><circle cx="256" cy="296" fill="#fff" r="60"/><g fill="#8481e2"><path d="m256 176c-66.168 0-120 53.832-120 120s53.832 120 120 120 120-53.832 120-120-53.832-120-120-120zm0 220c-55.141 0-100-44.86-100-100s44.859-100 100-100 100 44.86 100 100-44.859 100-100 100z"/><path d="m502 56h-492c-5.523 0-10 4.477-10 10v380c0 5.523 4.477 10 10 10h492c5.522 0 10-4.477 10-10v-380c0-5.523-4.478-10-10-10zm-10 20v60h-472v-60zm-472 360v-280h472v280z"/></g><g><path d="m446 116h-180c-5.522 0-10-4.477-10-10s4.478-10 10-10h180c5.522 0 10 4.477 10 10s-4.478 10-10 10z" fill="#fff"/></g><g><circle cx="60" cy="106" fill="#ff7d97" r="10"/><circle cx="100" cy="106" fill="#ffee80" r="10"/><circle cx="140" cy="106" fill="#7dd9c2" r="10"/></g></g></svg>