<svg id="Layer_1" enable-background="new 0 0 512 512" height="512" viewBox="0 0 512 512" width="512" xmlns="http://www.w3.org/2000/svg"><g><path d="m56 50h400v340h-400z" fill="#fff"/><g><g><path d="m136 320h-40c-5.522 0-10-4.477-10-10s4.478-10 10-10h40c5.523 0 10 4.477 10 10s-4.477 10-10 10z" fill="#cecdf3"/></g><g><path d="m166 360h-70c-5.522 0-10-4.477-10-10s4.478-10 10-10h70c5.523 0 10 4.477 10 10s-4.477 10-10 10z" fill="#cecdf3"/></g></g><g><g><path d="m416 140h-36c-5.522 0-10-4.477-10-10s4.478-10 10-10h36c5.522 0 10 4.477 10 10s-4.478 10-10 10z" fill="#cecdf3"/></g><g><path d="m416 100h-70c-5.522 0-10-4.477-10-10s4.478-10 10-10h70c5.522 0 10 4.477 10 10s-4.478 10-10 10z" fill="#cecdf3"/></g></g><path d="m36 10h440v40h-440z" fill="#cecdf3"/><g><circle cx="256" cy="210" fill="#ff7d97" r="110"/><path d="m256 270c-16.569 0-31.569-6.716-42.426-17.574l-35.355 35.355c19.905 19.907 47.405 32.219 77.781 32.219 60.751 0 110-49.249 110-110h-50c0 33.137-26.863 60-60 60z" fill="#7dd9c2"/><path d="m256 100v50c33.137 0 60 26.863 60 60h50c0-60.751-49.249-110-110-110z" fill="#ffee80"/><circle cx="256" cy="210" fill="#fff" r="60"/></g><circle cx="256" cy="477" fill="#cecdf3" r="25"/><g fill="#8481e2"><path d="m476 0h-440c-5.522 0-10 4.477-10 10v40c0 5.523 4.478 10 10 10h10v330c0 5.523 4.478 10 10 10h190v43.463c-14.44 4.314-25 17.712-25 33.537 0 19.299 15.701 35 35 35s35-15.701 35-35c0-15.824-10.56-29.223-25-33.537v-43.463h190c5.522 0 10-4.477 10-10v-330h10c5.522 0 10-4.477 10-10v-40c0-5.523-4.478-10-10-10zm-205 477c0 8.271-6.728 15-15 15-8.271 0-15-6.729-15-15s6.729-15 15-15c8.272 0 15 6.729 15 15zm175-97h-380v-320h380zm20-340h-420v-20h420z"/><path d="m256 330c66.168 0 120-53.832 120-120s-53.832-120-120-120-120 53.832-120 120 53.832 120 120 120zm0-220c55.141 0 100 44.86 100 100s-44.859 100-100 100-100-44.86-100-100 44.859-100 100-100z"/></g></g></svg>